<mxfile host="app.diagrams.net" modified="2023-07-07T07:58:20.761Z" agent="Mozilla/5.0 (Macintosh; Intel Mac OS X 10_15_7) AppleWebKit/537.36 (KHTML, like Gecko) Chrome/114.0.0.0 Safari/537.36" version="21.2.9" etag="i8etUzXUr0CHZ9js7OOI" type="github">
  <diagram name="第 1 页" id="KCKQ9zMlTmaA9JNpRW-8">
    <mxGraphModel>
      <root>
        <mxCell id="0" />
        <mxCell id="1" parent="0" />
      </root>
    </mxGraphModel>
  </diagram>
</mxfile>
